<mxfile host="app.diagrams.net" modified="2023-06-06T08:23:03.378Z" agent="Mozilla/5.0 (Windows NT 10.0; Win64; x64) AppleWebKit/537.36 (KHTML, like Gecko) Chrome/114.0.0.0 Safari/537.36 Edg/114.0.1823.37" etag="T8BP43EUHbCpFEqT4SUm" version="21.3.7" type="github">
  <diagram name="Page-1" id="LdEdi5w2XCYIneSj1d3m">
    <mxGraphModel dx="1622" dy="927" grid="1" gridSize="10" guides="1" tooltips="1" connect="1" arrows="1" fold="1" page="1" pageScale="1" pageWidth="850" pageHeight="1100" math="0" shadow="0">
      <root>
        <mxCell id="0" />
        <mxCell id="1" parent="0" />
        <mxCell id="igEghiyRJnkW4HHrUYsg-1" value="User&lt;br&gt;" style="shape=umlActor;verticalLabelPosition=bottom;verticalAlign=top;html=1;outlineConnect=0;" vertex="1" parent="1">
          <mxGeometry x="120" y="280" width="30" height="60" as="geometry" />
        </mxCell>
        <mxCell id="igEghiyRJnkW4HHrUYsg-2" value="&amp;nbsp; &amp;nbsp; Login&lt;span style=&quot;white-space: pre;&quot;&gt;&#x9;&lt;/span&gt;" style="ellipse;whiteSpace=wrap;html=1;" vertex="1" parent="1">
          <mxGeometry x="320" y="120" width="120" height="60" as="geometry" />
        </mxCell>
        <mxCell id="igEghiyRJnkW4HHrUYsg-9" value="view timesheet" style="ellipse;whiteSpace=wrap;html=1;" vertex="1" parent="1">
          <mxGeometry x="320" y="380" width="120" height="60" as="geometry" />
        </mxCell>
        <mxCell id="igEghiyRJnkW4HHrUYsg-10" value="edit timesheet" style="ellipse;whiteSpace=wrap;html=1;" vertex="1" parent="1">
          <mxGeometry x="320" y="540" width="120" height="60" as="geometry" />
        </mxCell>
        <mxCell id="igEghiyRJnkW4HHrUYsg-11" value="create timesheet" style="ellipse;whiteSpace=wrap;html=1;" vertex="1" parent="1">
          <mxGeometry x="320" y="250" width="120" height="60" as="geometry" />
        </mxCell>
        <mxCell id="igEghiyRJnkW4HHrUYsg-13" value="" style="endArrow=none;html=1;rounded=0;entryX=0;entryY=0.5;entryDx=0;entryDy=0;exitX=1;exitY=0.3333333333333333;exitDx=0;exitDy=0;exitPerimeter=0;" edge="1" parent="1" source="igEghiyRJnkW4HHrUYsg-1" target="igEghiyRJnkW4HHrUYsg-11">
          <mxGeometry width="50" height="50" relative="1" as="geometry">
            <mxPoint x="160" y="280" as="sourcePoint" />
            <mxPoint x="210" y="230" as="targetPoint" />
          </mxGeometry>
        </mxCell>
        <mxCell id="igEghiyRJnkW4HHrUYsg-14" value="" style="endArrow=none;html=1;rounded=0;entryX=0;entryY=0.5;entryDx=0;entryDy=0;exitX=1;exitY=0.3333333333333333;exitDx=0;exitDy=0;exitPerimeter=0;" edge="1" parent="1" source="igEghiyRJnkW4HHrUYsg-1" target="igEghiyRJnkW4HHrUYsg-9">
          <mxGeometry width="50" height="50" relative="1" as="geometry">
            <mxPoint x="150" y="300" as="sourcePoint" />
            <mxPoint x="288" y="260" as="targetPoint" />
          </mxGeometry>
        </mxCell>
        <mxCell id="igEghiyRJnkW4HHrUYsg-15" value="" style="endArrow=none;html=1;rounded=0;entryX=0;entryY=0.5;entryDx=0;entryDy=0;exitX=1;exitY=0.3333333333333333;exitDx=0;exitDy=0;exitPerimeter=0;" edge="1" parent="1" source="igEghiyRJnkW4HHrUYsg-1" target="igEghiyRJnkW4HHrUYsg-10">
          <mxGeometry width="50" height="50" relative="1" as="geometry">
            <mxPoint x="170" y="290" as="sourcePoint" />
            <mxPoint x="298" y="270" as="targetPoint" />
          </mxGeometry>
        </mxCell>
        <mxCell id="igEghiyRJnkW4HHrUYsg-32" value="" style="edgeStyle=orthogonalEdgeStyle;rounded=0;orthogonalLoop=1;jettySize=auto;html=1;" edge="1" parent="1" source="igEghiyRJnkW4HHrUYsg-30" target="igEghiyRJnkW4HHrUYsg-31">
          <mxGeometry relative="1" as="geometry" />
        </mxCell>
        <mxCell id="igEghiyRJnkW4HHrUYsg-30" value="Admin" style="shape=umlActor;verticalLabelPosition=bottom;verticalAlign=top;html=1;outlineConnect=0;" vertex="1" parent="1">
          <mxGeometry x="120" y="10" width="30" height="60" as="geometry" />
        </mxCell>
        <mxCell id="igEghiyRJnkW4HHrUYsg-33" value="" style="edgeStyle=orthogonalEdgeStyle;rounded=0;orthogonalLoop=1;jettySize=auto;html=1;" edge="1" parent="1" source="igEghiyRJnkW4HHrUYsg-31" target="igEghiyRJnkW4HHrUYsg-1">
          <mxGeometry relative="1" as="geometry" />
        </mxCell>
        <mxCell id="igEghiyRJnkW4HHrUYsg-31" value="Manager&lt;br&gt;" style="shape=umlActor;verticalLabelPosition=bottom;verticalAlign=top;html=1;outlineConnect=0;" vertex="1" parent="1">
          <mxGeometry x="120" y="150" width="30" height="60" as="geometry" />
        </mxCell>
        <mxCell id="igEghiyRJnkW4HHrUYsg-34" value="export timesheet&lt;br&gt;" style="ellipse;whiteSpace=wrap;html=1;" vertex="1" parent="1">
          <mxGeometry x="320" y="20" width="120" height="60" as="geometry" />
        </mxCell>
        <mxCell id="igEghiyRJnkW4HHrUYsg-54" value="Server" style="shape=umlActor;verticalLabelPosition=bottom;verticalAlign=top;html=1;outlineConnect=0;" vertex="1" parent="1">
          <mxGeometry x="620" y="280" width="30" height="60" as="geometry" />
        </mxCell>
        <mxCell id="igEghiyRJnkW4HHrUYsg-60" value="Authenticate" style="ellipse;whiteSpace=wrap;html=1;" vertex="1" parent="1">
          <mxGeometry x="510" y="120" width="120" height="60" as="geometry" />
        </mxCell>
        <mxCell id="igEghiyRJnkW4HHrUYsg-66" value="" style="endArrow=none;html=1;rounded=0;exitX=1;exitY=0.3333333333333333;exitDx=0;exitDy=0;exitPerimeter=0;entryX=0;entryY=0.5;entryDx=0;entryDy=0;" edge="1" parent="1" source="igEghiyRJnkW4HHrUYsg-1" target="igEghiyRJnkW4HHrUYsg-2">
          <mxGeometry width="50" height="50" relative="1" as="geometry">
            <mxPoint x="400" y="410" as="sourcePoint" />
            <mxPoint x="450" y="360" as="targetPoint" />
          </mxGeometry>
        </mxCell>
        <mxCell id="igEghiyRJnkW4HHrUYsg-69" value="" style="endArrow=none;html=1;rounded=0;exitX=1;exitY=0.5;exitDx=0;exitDy=0;entryX=0;entryY=0.3333333333333333;entryDx=0;entryDy=0;entryPerimeter=0;" edge="1" parent="1" source="igEghiyRJnkW4HHrUYsg-9" target="igEghiyRJnkW4HHrUYsg-54">
          <mxGeometry width="50" height="50" relative="1" as="geometry">
            <mxPoint x="400" y="410" as="sourcePoint" />
            <mxPoint x="450" y="360" as="targetPoint" />
          </mxGeometry>
        </mxCell>
        <mxCell id="igEghiyRJnkW4HHrUYsg-70" value="" style="endArrow=none;html=1;rounded=0;exitX=1;exitY=0.5;exitDx=0;exitDy=0;entryX=0;entryY=1;entryDx=0;entryDy=0;entryPerimeter=0;" edge="1" parent="1" source="igEghiyRJnkW4HHrUYsg-10" target="igEghiyRJnkW4HHrUYsg-54">
          <mxGeometry width="50" height="50" relative="1" as="geometry">
            <mxPoint x="440" y="420" as="sourcePoint" />
            <mxPoint x="710" y="320" as="targetPoint" />
          </mxGeometry>
        </mxCell>
        <mxCell id="igEghiyRJnkW4HHrUYsg-82" value="" style="endArrow=none;html=1;rounded=0;exitX=1;exitY=1;exitDx=0;exitDy=0;exitPerimeter=0;entryX=0;entryY=0.5;entryDx=0;entryDy=0;" edge="1" parent="1" source="igEghiyRJnkW4HHrUYsg-30" target="igEghiyRJnkW4HHrUYsg-34">
          <mxGeometry width="50" height="50" relative="1" as="geometry">
            <mxPoint x="510" y="330" as="sourcePoint" />
            <mxPoint x="560" y="280" as="targetPoint" />
          </mxGeometry>
        </mxCell>
        <mxCell id="igEghiyRJnkW4HHrUYsg-83" value="" style="endArrow=none;html=1;rounded=0;exitX=1;exitY=0.5;exitDx=0;exitDy=0;entryX=0;entryY=0.5;entryDx=0;entryDy=0;" edge="1" parent="1" source="igEghiyRJnkW4HHrUYsg-2" target="igEghiyRJnkW4HHrUYsg-60">
          <mxGeometry width="50" height="50" relative="1" as="geometry">
            <mxPoint x="510" y="470" as="sourcePoint" />
            <mxPoint x="560" y="420" as="targetPoint" />
          </mxGeometry>
        </mxCell>
        <mxCell id="igEghiyRJnkW4HHrUYsg-84" value="" style="endArrow=none;html=1;rounded=0;exitX=1;exitY=0.5;exitDx=0;exitDy=0;entryX=0.5;entryY=0;entryDx=0;entryDy=0;entryPerimeter=0;" edge="1" parent="1" source="igEghiyRJnkW4HHrUYsg-60" target="igEghiyRJnkW4HHrUYsg-54">
          <mxGeometry width="50" height="50" relative="1" as="geometry">
            <mxPoint x="510" y="470" as="sourcePoint" />
            <mxPoint x="560" y="420" as="targetPoint" />
          </mxGeometry>
        </mxCell>
        <mxCell id="igEghiyRJnkW4HHrUYsg-85" value="" style="endArrow=none;html=1;rounded=0;exitX=1;exitY=0.5;exitDx=0;exitDy=0;entryX=0.25;entryY=0.1;entryDx=0;entryDy=0;entryPerimeter=0;" edge="1" parent="1" source="igEghiyRJnkW4HHrUYsg-11" target="igEghiyRJnkW4HHrUYsg-54">
          <mxGeometry width="50" height="50" relative="1" as="geometry">
            <mxPoint x="510" y="470" as="sourcePoint" />
            <mxPoint x="560" y="420" as="targetPoint" />
          </mxGeometry>
        </mxCell>
      </root>
    </mxGraphModel>
  </diagram>
</mxfile>
